<svg xmlns="http://www.w3.org/2000/svg" width="30" height="30" viewBox="0 0 30 30">
  <g fill="#0A3D53" fill-rule="evenodd">
    <path d="M15,0.702142857 C7.11629319,0.702142857 0.701251136,7.11540147 0.701251136,15 C0.701251136,22.8845985 7.11629319,29.2978571 15,29.2978571 C22.8837068,29.2978571 29.2987489,22.8845985 29.2987489,15 C29.2987489,7.11540147 22.8837068,0.702142857 15,0.702142857 L15,0.702142857 Z M15,28.3454989 C7.64151696,28.3454989 1.65539278,22.358483 1.65539278,15 C1.65539278,7.64151696 7.64151696,1.65450106 15,1.65450106 C22.358483,1.65450106 28.3446072,7.64151696 28.3446072,15 C28.3446072,22.358483 22.358483,28.3454989 15,28.3454989 L15,28.3454989 Z"/>
    <path d="M16.1904762,12.3809524 L16.1904762,11.0344122 C16.1904762,10.4265253 16.3318452,10.1190476 17.3251488,10.1190476 L18.5714286,10.1190476 L18.5714286,7.85714286 L16.4918155,7.85714286 C13.9434524,7.85714286 13.1026786,8.96688988 13.1026786,10.8718378 L13.1026786,12.3809524 L11.4285714,12.3809524 L11.4285714,14.6428571 L13.1026786,14.6428571 L13.1026786,21.4285714 L16.1904762,21.4285714 L16.1904762,14.6428571 L18.2886905,14.6428571 L18.5714286,12.3809524 L16.1904762,12.3809524 L16.1904762,12.3809524 Z"/>
  </g>
</svg>
