<svg xmlns="http://www.w3.org/2000/svg" width="30" height="30" viewBox="0 0 30 30">
  <g fill="#223031" fill-rule="evenodd">
    <path d="M14.6474988,0 C6.57150649,0 0,6.56967955 0,14.6465854 C0,22.7234912 6.57150649,29.2931707 14.6474988,29.2931707 C22.7234912,29.2931707 29.2949977,22.7234912 29.2949977,14.6465854 C29.2949977,6.56967955 22.7234912,0 14.6474988,0 L14.6474988,0 Z M14.6474988,28.3175843 C7.1095406,28.3175843 0.977413393,22.1845436 0.977413393,14.6465854 C0.977413393,7.10862712 7.1095406,0.975586452 14.6474988,0.975586452 C22.1854571,0.975586452 28.3175843,7.10862712 28.3175843,14.6465854 C28.3175843,22.1845436 22.1854571,28.3175843 14.6474988,28.3175843 L14.6474988,28.3175843 Z"/>
    <path d="M17.0731709,14.6341466 C17.0731709,13.9608741 16.8349848,13.3860517 16.3586132,12.9096801 C15.882241,12.4333079 15.3074192,12.1951218 14.6341466,12.1951218 C13.9608741,12.1951218 13.3860517,12.4333079 12.9096801,12.9096801 C12.4333079,13.3860517 12.1951223,13.9608741 12.1951223,14.6341466 C12.1951223,15.3074186 12.4333079,15.882241 12.9096801,16.3586126 C13.3860517,16.8349848 13.9608741,17.0731709 14.6341466,17.0731709 C15.3074192,17.0731709 15.882241,16.8349848 16.3586132,16.3586126 C16.8349848,15.882241 17.0731709,15.3074186 17.0731709,14.6341466 L17.0731709,14.6341466 Z M18.3879576,14.6341466 C18.3879576,15.6758132 18.0227392,16.5618647 17.2923022,17.2923022 C16.5618653,18.0227392 15.6758132,18.3879576 14.6341466,18.3879576 C13.59248,18.3879576 12.706428,18.0227392 11.975991,17.2923022 C11.2455541,16.5618647 10.8803356,15.6758132 10.8803356,14.6341466 C10.8803356,13.5924794 11.2455541,12.706428 11.975991,11.975991 C12.706428,11.2455541 13.59248,10.8803351 14.6341466,10.8803351 C15.6758132,10.8803351 16.5618653,11.2455541 17.2923022,11.975991 C18.0227392,12.706428 18.3879576,13.5924794 18.3879576,14.6341466 L18.3879576,14.6341466 Z M19.4169212,10.7278961 C19.4169212,10.9692578 19.3311741,11.1756861 19.1596803,11.3471799 C18.988186,11.5186736 18.7817583,11.6044208 18.5403966,11.6044208 C18.2990349,11.6044208 18.0926071,11.5186736 17.9211128,11.3471799 C17.7496191,11.1756861 17.6638725,10.9692578 17.6638725,10.7278961 C17.6638725,10.4865344 17.7496191,10.2801067 17.9211128,10.1086129 C18.0926071,9.93711861 18.2990349,9.85137202 18.5403966,9.85137202 C18.7817583,9.85137202 18.988186,9.93711861 19.1596803,10.1086129 C19.3311741,10.2801067 19.4169212,10.4865344 19.4169212,10.7278961 L19.4169212,10.7278961 Z M14.6341466,8.63185987 C14.5896852,8.63185987 14.3467357,8.6302715 13.9052975,8.62709589 C13.4638593,8.62392028 13.1288114,8.62392028 12.9001527,8.62709589 C12.671494,8.6302715 12.3650283,8.6397989 11.9807544,8.65567809 C11.5964812,8.67155727 11.2693723,8.70331565 10.9994284,8.75095264 C10.7294845,8.79858963 10.5024136,8.8573424 10.3182168,8.92721037 C10.0006354,9.05424273 9.72116348,9.23844005 9.47980177,9.47980177 C9.23844005,9.72116348 9.05424273,10.0006354 8.92721037,10.3182163 C8.8573424,10.5024136 8.7985902,10.7294839 8.75095264,10.9994284 C8.70331565,11.2693723 8.67155727,11.5964812 8.65567866,11.9807544 C8.63979947,12.3650277 8.63027207,12.671494 8.62709589,12.9001527 C8.62392028,13.1288108 8.62392028,13.4638593 8.62709589,13.9052975 C8.63027207,14.3467352 8.63185987,14.5896852 8.63185987,14.6341466 C8.63185987,14.678608 8.63027207,14.9215575 8.62709589,15.3629958 C8.62392028,15.8044334 8.62392028,16.1394819 8.62709589,16.3681406 C8.63027207,16.5967987 8.63979947,16.903265 8.65567866,17.2875382 C8.67155727,17.6718115 8.70331565,17.9989204 8.75095264,18.2688643 C8.7985902,18.5388088 8.8573424,18.7658791 8.92721037,18.9500764 C9.05424273,19.2676579 9.23844005,19.5471292 9.47980177,19.7884909 C9.72116348,20.0298526 10.0006354,20.21405 10.3182168,20.3410823 C10.5024136,20.4109503 10.7294845,20.469703 10.9994284,20.51734 C11.2693723,20.5649776 11.5964812,20.5967354 11.9807544,20.6126146 C12.3650283,20.6284938 12.671494,20.6380212 12.9001527,20.6411968 C13.1288114,20.6443724 13.4638593,20.6443724 13.9052975,20.6411968 C14.3467357,20.6380212 14.5896852,20.6364334 14.6341466,20.6364334 C14.678608,20.6364334 14.9215575,20.6380212 15.3629958,20.6411968 C15.8044334,20.6443724 16.1394819,20.6443724 16.3681406,20.6411968 C16.5967993,20.6380212 16.903265,20.6284938 17.2875382,20.6126146 C17.6718115,20.5967354 17.9989204,20.5649776 18.2688649,20.51734 C18.5388088,20.469703 18.7658797,20.4109503 18.9500764,20.3410823 C19.2676579,20.21405 19.5471292,20.0298526 19.7884909,19.7884909 C20.0298532,19.5471292 20.21405,19.2676579 20.3410829,18.9500764 C20.4109503,18.7658791 20.469703,18.5388088 20.51734,18.2688643 C20.5649776,17.9989204 20.5967354,17.6718115 20.6126146,17.2875382 C20.6284938,16.903265 20.6380212,16.5967987 20.6411968,16.3681406 C20.644373,16.1394819 20.644373,15.8044334 20.6411968,15.3629958 C20.6380212,14.9215575 20.6364334,14.678608 20.6364334,14.6341466 C20.6364334,14.5896852 20.6380212,14.3467352 20.6411968,13.9052975 C20.644373,13.4638593 20.644373,13.1288108 20.6411968,12.9001527 C20.6380212,12.671494 20.6284938,12.3650277 20.6126146,11.9807544 C20.5967354,11.5964812 20.5649776,11.2693723 20.51734,10.9994284 C20.469703,10.7294839 20.4109503,10.5024136 20.3410829,10.3182163 C20.21405,10.0006354 20.0298532,9.72116348 19.7884909,9.47980177 C19.5471292,9.23844005 19.2676579,9.05424273 18.9500764,8.92721037 C18.7658797,8.8573424 18.5388088,8.79858963 18.2688649,8.75095264 C17.9989204,8.70331565 17.6718115,8.67155727 17.2875382,8.65567809 C16.903265,8.6397989 16.5967993,8.6302715 16.3681406,8.62709589 C16.1394819,8.62392028 15.8044334,8.62392028 15.3629958,8.62709589 C14.9215575,8.6302715 14.678608,8.63185987 14.6341466,8.63185987 L14.6341466,8.63185987 Z M21.9512201,14.6341466 C21.9512201,16.0886687 21.9353409,17.0954013 21.9035825,17.6543445 C21.8400663,18.975483 21.4462657,19.9980948 20.7221805,20.72218 C19.9980948,21.4462657 18.975483,21.8400663 17.6543445,21.9035825 C17.0954019,21.9353409 16.0886687,21.9512195 14.6341466,21.9512195 C13.179624,21.9512195 12.1728914,21.9353409 11.6139482,21.9035825 C10.2928102,21.8400663 9.27019843,21.4462657 8.54611272,20.72218 C7.82202758,19.9980948 7.42822634,18.975483 7.36471016,17.6543445 C7.33295236,17.0954013 7.31707317,16.0886687 7.31707317,14.6341466 C7.31707317,13.179624 7.33295236,12.1728914 7.36471016,11.6139482 C7.42822634,10.2928097 7.82202758,9.27019786 8.54611272,8.54611272 C9.27019843,7.82202701 10.2928102,7.42822634 11.6139482,7.36471016 C12.1728914,7.33295236 13.179624,7.31707317 14.6341466,7.31707317 C16.0886687,7.31707317 17.0954019,7.33295236 17.6543445,7.36471016 C18.975483,7.42822634 19.9980948,7.82202701 20.7221805,8.54611272 C21.4462657,9.27019786 21.8400663,10.2928097 21.9035825,11.6139482 C21.9353409,12.1728914 21.9512201,13.179624 21.9512201,14.6341466 L21.9512201,14.6341466 Z"/>
  </g>
</svg>
