<svg xmlns="http://www.w3.org/2000/svg" width="24" height="32" viewBox="0 0 24 32">
  <g fill="#0A3D53" fill-rule="evenodd">
    <path d="M12,0 C5.383,0 0,5.394 0,12.022 C0,21.949 11.201,31.481 11.678,31.882 C11.771,31.961 11.886,32 12,32 C12.113,32 12.226,31.962 12.318,31.886 C12.795,31.492 24,22.124 24,12.022 C24,5.394 18.617,0 12,0 L12,0 Z M12.002,30.838 C10.161,29.193 1,20.579 1,12.022 C1,5.944 5.935,1 12,1 C18.065,1 23,5.944 23,12.022 C23,20.724 13.848,29.215 12.002,30.838 L12.002,30.838 Z"/>
    <path d="M12,6 C8.691,6 6,8.691 6,12 C6,15.309 8.691,18 12,18 C15.309,18 18,15.309 18,12 C18,8.691 15.309,6 12,6 L12,6 Z M12,17 C9.243,17 7,14.757 7,12 C7,9.243 9.243,7 12,7 C14.757,7 17,9.243 17,12 C17,14.757 14.757,17 12,17 L12,17 Z"/>
  </g>
</svg>
