<svg xmlns="http://www.w3.org/2000/svg" width="15" height="30" viewBox="0 0 15 30">
  <path fill="#0A3D53" fill-rule="evenodd" d="M13.140625,0 L1.859375,0 C0.8359375,0 0,0.8359375 0,1.8671875 L0,28.140625 C0,29.1640625 0.8359375,30 1.859375,30 L13.1328125,30 C14.15625,30 14.9921875,29.1640625 14.9921875,28.140625 L14.9921875,1.8671875 C15,0.8359375 14.1640625,0 13.140625,0 L13.140625,0 Z M6.25,2.8046875 C6.25,2.640625 6.3828125,2.5 6.5546875,2.5 L8.453125,2.5 C8.6171875,2.5 8.7578125,2.6328125 8.7578125,2.8046875 L8.7578125,2.828125 C8.7578125,2.9921875 8.625,3.1328125 8.453125,3.1328125 L6.5546875,3.1328125 C6.390625,3.1328125 6.25,3 6.25,2.828125 L6.25,2.8046875 L6.25,2.8046875 Z M5.3125,2.5 C5.484375,2.5 5.625,2.640625 5.625,2.8125 C5.625,2.984375 5.484375,3.125 5.3125,3.125 C5.140625,3.125 5,2.984375 5,2.8125 C5,2.640625 5.140625,2.5 5.3125,2.5 L5.3125,2.5 Z M7.5,28.7578125 C6.8046875,28.7578125 6.2421875,28.1953125 6.2421875,27.5 C6.2421875,26.8046875 6.8046875,26.2421875 7.5,26.2421875 C8.1953125,26.2421875 8.7578125,26.8046875 8.7578125,27.5 C8.7578125,28.1953125 8.1875,28.7578125 7.5,28.7578125 L7.5,28.7578125 Z M13.75,25 L1.25,25 L1.25,5 L13.75,5 L13.75,25 L13.75,25 Z"/>
</svg>
