<svg xmlns="http://www.w3.org/2000/svg" width="30" height="30" viewBox="0 0 30 30">
  <g fill="#223031" fill-rule="evenodd">
    <path d="M14.6474988,0 C6.57150649,0 0,6.56967955 0,14.6465854 C0,22.7234912 6.57150649,29.2931707 14.6474988,29.2931707 C22.7234912,29.2931707 29.2949977,22.7234912 29.2949977,14.6465854 C29.2949977,6.56967955 22.7234912,0 14.6474988,0 L14.6474988,0 Z M14.6474988,28.3175843 C7.1095406,28.3175843 0.977413393,22.1845436 0.977413393,14.6465854 C0.977413393,7.10862712 7.1095406,0.975586452 14.6474988,0.975586452 C22.1854571,0.975586452 28.3175843,7.10862712 28.3175843,14.6465854 C28.3175843,22.1845436 22.1854571,28.3175843 14.6474988,28.3175843 L14.6474988,28.3175843 Z"/>
    <path d="M13.4606568,16.995679 C13.0757788,19.0108009 12.6067544,20.9425082 11.2157788,21.9515326 C10.7869983,18.9061668 11.8457788,16.6195814 12.3382178,14.1917765 C11.4989495,12.7795814 12.4391934,9.93909359 14.20773,10.6393375 C16.3845592,11.4998253 12.3228519,15.8871424 15.0491934,16.4359229 C17.8962666,17.0073863 19.0582178,11.4968985 17.292608,9.70494725 C14.742608,7.11616676 9.86870559,9.64421554 10.4687056,13.3503131 C10.6143153,14.2561668 11.550169,14.530557 10.842608,15.7810448 C9.210169,15.4195814 8.72285193,14.1317765 8.78577876,12.4151912 C8.88675437,9.60543505 11.3094373,7.63933749 13.740169,7.36641066 C16.8140714,7.02177652 19.6991934,8.49543505 20.0979739,11.3864107 C20.5465105,14.650557 18.7106568,18.1861668 15.4230958,17.9315326 C14.5318763,17.8620204 14.1587056,17.4200692 13.4606568,16.995679 L13.4606568,16.995679 Z"/>
  </g>
</svg>
