<svg xmlns="http://www.w3.org/2000/svg" width="30" height="30" viewBox="0 0 30 30">
  <g fill="#0A3D53" fill-rule="evenodd">
    <path d="M15,0.702142857 C7.11629319,0.702142857 0.701251136,7.11540147 0.701251136,15 C0.701251136,22.8845985 7.11629319,29.2978571 15,29.2978571 C22.8837068,29.2978571 29.2987489,22.8845985 29.2987489,15 C29.2987489,7.11540147 22.8837068,0.702142857 15,0.702142857 L15,0.702142857 Z M15,28.3454989 C7.64151696,28.3454989 1.65539278,22.358483 1.65539278,15 C1.65539278,7.64151696 7.64151696,1.65450106 15,1.65450106 C22.358483,1.65450106 28.3446072,7.64151696 28.3446072,15 C28.3446072,22.358483 22.358483,28.3454989 15,28.3454989 L15,28.3454989 Z"/>
    <path d="M22.1428571,10.6698268 C21.6161112,10.9040612 21.0530379,11.0622455 20.4596918,11.1352536 C21.065147,10.770213 21.5313474,10.1922319 21.7493113,9.50473868 C21.1832107,9.84240129 20.5565646,10.0888037 19.8875367,10.21961 C19.3517089,9.64467094 18.5888354,9.28571429 17.7472527,9.28571429 C16.1276602,9.28571429 14.8168498,10.6059447 14.8168498,12.2334176 C14.8168498,12.46461 14.841068,12.6897185 14.8925317,12.9057008 C12.4555747,12.7840206 10.2940998,11.6098065 8.8500893,9.82414926 C8.59882542,10.259156 8.45351618,10.767171 8.45351618,11.3056059 C8.45351618,12.3277198 8.97420761,13.2311954 9.76129931,13.7605044 C9.27693519,13.7483364 8.82284382,13.6144881 8.42929797,13.3924217 L8.42929797,13.4289258 C8.42929797,14.8586684 9.44040808,16.0480925 10.7814912,16.318831 C10.5362819,16.3857551 10.2759362,16.4222592 10.0095359,16.4222592 C9.82184482,16.4222592 9.637181,16.4040072 9.45857173,16.3675031 C9.83092665,17.5386752 10.9146914,18.3904368 12.1982563,18.4147728 C11.196228,19.2056943 9.93082675,19.6772051 8.55644356,19.6772051 C8.32031605,19.6772051 8.08721581,19.6619951 7.85714286,19.634617 C9.1497896,20.4802946 10.690673,20.9670154 12.3435655,20.9670154 C17.7411982,20.9670154 20.6897648,16.4739733 20.6897648,12.5771642 C20.6897648,12.4494 20.6867375,12.3216358 20.680683,12.1969136 C21.2528381,11.7801588 21.7493113,11.2630179 22.1428571,10.6698268 L22.1428571,10.6698268 Z"/>
  </g>
</svg>
